# xmcd
#
# Track frame offsets: 
#        150
#        28577
#        46532
#        66965
#        87947
#        104025
#        120376
#        140977
#        159881
#        179425
#
# Disc length: 2774 seconds
#
# Revision: 7
# Processed by: cddbd v1.5.2PL0 Copyright (c) Steve Scherf et al.
# Submitted via: ExactAudioCopy v0.99pb5
#
DISCID=830ad40a
DTITLE=Gregg Allman - Southern Blood
DYEAR=2017
DGENRE=Southern Rock
TTITLE0=My Only True Friend
TTITLE1=Once I Was
TTITLE2=Going Going Gone
TTITLE3=Black Muddy River
TTITLE4=I Love The Life I Live
TTITLE5=Willin'
TTITLE6=Blind Bats And Swamp Rats
TTITLE7=Out Of Left Field
TTITLE8=Love Like Kerosene
TTITLE9=Song For Adam (feat Jackson Brown)
EXTD=Release-Date: 08.09.2017\nMARO\n
EXTT0=
EXTT1=
EXTT2=
EXTT3=
EXTT4=
EXTT5=
EXTT6=
EXTT7=
EXTT8=
EXTT9=
PLAYORDER=
